<svg width="56" height="56" viewBox="0 0 56 56" fill="none" xmlns="http://www.w3.org/2000/svg">
<circle cx="28" cy="28" r="28" fill="#378DF0"/>
<path d="M14.4992 24.625H21.2492V39.25H14.4992C14.2008 39.25 13.9147 39.1315 13.7037 38.9205C13.4927 38.7095 13.3742 38.4234 13.3742 38.125V25.75C13.3742 25.4516 13.4927 25.1655 13.7037 24.9545C13.9147 24.7435 14.2008 24.625 14.4992 24.625V24.625Z" stroke="white" stroke-width="3" stroke-linecap="round" stroke-linejoin="round"/>
<path d="M21.2492 24.625L26.8742 13.375C27.4651 13.375 28.0503 13.4914 28.5963 13.7175C29.1422 13.9437 29.6383 14.2752 30.0562 14.693C30.474 15.1109 30.8055 15.607 31.0316 16.1529C31.2578 16.6989 31.3742 17.2841 31.3742 17.875V21.25H40.0754C40.3945 21.25 40.7098 21.3178 41.0007 21.449C41.2915 21.5802 41.5511 21.7718 41.7622 22.0109C41.9733 22.2501 42.1312 22.5315 42.2253 22.8363C42.3194 23.1411 42.3476 23.4625 42.308 23.7791L40.6205 37.2791C40.5525 37.8232 40.2881 38.3238 39.877 38.6868C39.4658 39.0497 38.9363 39.25 38.3879 39.25H21.2492" stroke="white" stroke-width="3" stroke-linecap="round" stroke-linejoin="round"/>
</svg>
