<svg width="56" height="56" viewBox="0 0 56 56" fill="none" xmlns="http://www.w3.org/2000/svg">
<circle cx="28" cy="28" r="28" fill="#378DF0"/>
<path d="M35.8761 21.25H15.6261C15.0048 21.25 14.5011 21.7537 14.5011 22.375V38.125C14.5011 38.7463 15.0048 39.25 15.6261 39.25H35.8761C36.4974 39.25 37.0011 38.7463 37.0011 38.125V22.375C37.0011 21.7537 36.4974 21.25 35.8761 21.25Z" stroke="white" stroke-width="3" stroke-linecap="round" stroke-linejoin="round"/>
<path d="M19.0011 21.25V17.875C19.0011 17.5766 19.1196 17.2905 19.3306 17.0795C19.5416 16.8685 19.8277 16.75 20.1261 16.75H40.3761C40.6745 16.75 40.9606 16.8685 41.1716 17.0795C41.3826 17.2905 41.5011 17.5766 41.5011 17.875V33.625C41.5011 33.9234 41.3826 34.2095 41.1716 34.4205C40.9606 34.6315 40.6745 34.75 40.3761 34.75H37.0011" stroke="white" stroke-width="3" stroke-linecap="round" stroke-linejoin="round"/>
<path d="M14.5 27H37" stroke="white" stroke-width="3" stroke-linecap="round" stroke-linejoin="round"/>
</svg>
