<svg width="40" height="40" viewBox="0 0 40 40" fill="none" xmlns="http://www.w3.org/2000/svg">
<circle cx="20" cy="20" r="20" fill="#378DF0"/>
<path d="M28.125 15.9375H11.875C11.4263 15.9375 11.0625 16.3013 11.0625 16.75V28.125C11.0625 28.5737 11.4263 28.9375 11.875 28.9375H28.125C28.5737 28.9375 28.9375 28.5737 28.9375 28.125V16.75C28.9375 16.3013 28.5737 15.9375 28.125 15.9375Z" stroke="white" stroke-width="2" stroke-linecap="round" stroke-linejoin="round"/>
<path d="M16.3438 15.9375V12.2812C16.3438 11.3116 16.729 10.3816 17.4146 9.69589C18.1003 9.01021 19.0303 8.625 20 8.625C20.9697 8.625 21.8997 9.01021 22.5854 9.69589C23.271 10.3816 23.6562 11.3116 23.6562 12.2812V15.9375" stroke="white" stroke-width="2" stroke-linecap="round" stroke-linejoin="round"/>
<path d="M20 24.6429C21.0257 24.6429 21.8571 23.8114 21.8571 22.7857C21.8571 21.7601 21.0257 20.9286 20 20.9286C18.9743 20.9286 18.1429 21.7601 18.1429 22.7857C18.1429 23.8114 18.9743 24.6429 20 24.6429Z" fill="white"/>
</svg>
