<svg width="56" height="56" viewBox="0 0 56 56" fill="none" xmlns="http://www.w3.org/2000/svg">
<circle cx="28" cy="28" r="28" fill="#378DF0"/>
<path d="M17.6586 38.3414C16.3643 37.0471 17.2227 34.3298 16.5639 32.7375C15.881 31.087 13.375 29.7585 13.375 27.9999C13.375 26.2414 15.881 24.913 16.5639 23.2625C17.2227 21.6702 16.3643 18.9529 17.6586 17.6586C18.9529 16.3643 21.6702 17.2227 23.2625 16.5639C24.913 15.881 26.2415 13.375 28.0001 13.375C29.7586 13.375 31.087 15.881 32.7375 16.5639C34.3298 17.2227 37.0471 16.3643 38.3414 17.6586C39.6357 18.9529 38.7773 21.6702 39.4361 23.2625C40.119 24.913 42.625 26.2415 42.625 28.0001C42.625 29.7586 40.119 31.087 39.4361 32.7375C38.7773 34.3298 39.6357 37.0471 38.3414 38.3414C37.0471 39.6357 34.3298 38.7773 32.7375 39.4361C31.087 40.119 29.7585 42.625 27.9999 42.625C26.2414 42.625 24.913 40.119 23.2625 39.4361C21.6702 38.7773 18.9529 39.6357 17.6586 38.3414Z" stroke="white" stroke-width="3" stroke-linecap="round" stroke-linejoin="round"/>
<path d="M34.1875 24.625L25.9375 32.5L21.8125 28.5625" stroke="white" stroke-width="3" stroke-linecap="round" stroke-linejoin="round"/>
</svg>
