<svg width="40" height="40" viewBox="0 0 40 40" fill="none" xmlns="http://www.w3.org/2000/svg">
<circle cx="20" cy="20" r="20" fill="#378DF0"/>
<path d="M12.5312 27.4688C11.5964 26.534 12.2164 24.5715 11.7406 23.4216C11.2474 22.2295 9.4375 21.27 9.4375 20C9.4375 18.7299 11.2474 17.7705 11.7406 16.5784C12.2164 15.4285 11.5964 13.466 12.5312 12.5312C13.466 11.5964 15.4285 12.2164 16.5784 11.7406C17.7705 11.2474 18.73 9.4375 20 9.4375C21.2701 9.4375 22.2295 11.2474 23.4216 11.7406C24.5715 12.2164 26.534 11.5964 27.4688 12.5312C28.4036 13.466 27.7836 15.4285 28.2594 16.5784C28.7526 17.7705 30.5625 18.73 30.5625 20C30.5625 21.2701 28.7526 22.2295 28.2594 23.4216C27.7836 24.5715 28.4036 26.534 27.4688 27.4688C26.534 28.4036 24.5715 27.7836 23.4216 28.2594C22.2295 28.7526 21.27 30.5625 20 30.5625C18.7299 30.5625 17.7705 28.7526 16.5784 28.2594C15.4285 27.7836 13.466 28.4036 12.5312 27.4688Z" stroke="white" stroke-width="2" stroke-linecap="round" stroke-linejoin="round"/>
<path d="M24.4688 17.5625L18.5104 23.25L15.5312 20.4062" stroke="white" stroke-width="2" stroke-linecap="round" stroke-linejoin="round"/>
</svg>
