<svg width="56" height="56" viewBox="0 0 56 56" fill="none" xmlns="http://www.w3.org/2000/svg">
<circle cx="28" cy="28" r="28" fill="#378DF0"/>
<path d="M28 24.625V30.25" stroke="white" stroke-width="3" stroke-linecap="round" stroke-linejoin="round"/>
<path d="M26.0527 15.6229L13.681 36.9968C13.4831 37.3388 13.3787 37.7269 13.3783 38.1221C13.378 38.5172 13.4818 38.9055 13.6792 39.2478C13.8766 39.5902 14.1606 39.8745 14.5028 40.0722C14.845 40.2698 15.2332 40.3739 15.6283 40.3739H40.3717C40.7668 40.3739 41.155 40.2699 41.4972 40.0722C41.8394 39.8745 42.1235 39.5902 42.3209 39.2478C42.5182 38.9055 42.622 38.5172 42.6217 38.1221C42.6213 37.7269 42.5169 37.3388 42.319 36.9968L29.9473 15.6229C29.7497 15.2814 29.4657 14.9979 29.1239 14.8008C28.7821 14.6037 28.3945 14.5 28 14.5C27.6055 14.5 27.2179 14.6037 26.8761 14.8008C26.5343 14.9979 26.2503 15.2814 26.0527 15.6229V15.6229Z" stroke="white" stroke-width="3" stroke-linecap="round" stroke-linejoin="round"/>
<path d="M28 37C28.932 37 29.6875 36.2445 29.6875 35.3125C29.6875 34.3805 28.932 33.625 28 33.625C27.068 33.625 26.3125 34.3805 26.3125 35.3125C26.3125 36.2445 27.068 37 28 37Z" fill="white"/>
</svg>
