<svg width="56" height="56" viewBox="0 0 56 56" fill="none" xmlns="http://www.w3.org/2000/svg">
<circle cx="28" cy="28" r="28" fill="#378DF0"/>
<path d="M23.1019 27.2736C22.2346 25.1104 22.1409 22.7142 22.8364 20.4899C23.532 18.2656 24.9742 16.3497 26.9193 15.066C28.8644 13.7823 31.1931 13.2096 33.5117 13.4447C35.8303 13.6797 37.9967 14.7081 39.6446 16.356C41.2925 18.0039 42.3209 20.1703 42.5559 22.4889C42.791 24.8075 42.2182 27.1362 40.9345 29.0813C39.6508 31.0264 37.7349 32.4686 35.5106 33.1642C33.2864 33.8597 30.8901 33.7659 28.727 32.8987L28.7271 32.8985L26.8754 34.7502H23.5004V38.1252H20.1254V41.5002H14.5004V35.8752L23.1021 27.2735L23.1019 27.2736Z" stroke="white" stroke-width="3" stroke-linecap="round" stroke-linejoin="round"/>
<path opacity="0.5" d="M35.3125 21.25C35.6232 21.25 35.875 20.9982 35.875 20.6875C35.875 20.3768 35.6232 20.125 35.3125 20.125C35.0018 20.125 34.75 20.3768 34.75 20.6875C34.75 20.9982 35.0018 21.25 35.3125 21.25Z" stroke="white" stroke-width="2" stroke-linecap="round" stroke-linejoin="round"/>
<path d="M35 23C36.1046 23 37 22.1046 37 21C37 19.8954 36.1046 19 35 19C33.8954 19 33 19.8954 33 21C33 22.1046 33.8954 23 35 23Z" fill="white"/>
</svg>
