<svg width="300" height="66" viewBox="0 0 300 66" fill="none" xmlns="http://www.w3.org/2000/svg">
<g clip-path="url(#clip0_1_47)">
<path fill-rule="evenodd" clip-rule="evenodd" d="M53.242 18.1994C54.046 18.5848 56.2719 21.0349 56.9586 21.724L67.358 32.1626C68.4939 33.3034 73.6885 38.3645 74.245 39.171C76.3024 42.1647 71.3477 47.3764 68.1008 44.2142C66.7326 42.8819 65.7881 41.9146 64.5016 40.687C63.3938 39.6304 61.9337 38.4104 60.9917 37.2517L50.4647 26.9433C49.2343 25.7693 48.1393 24.7229 46.9089 23.5514C44.0831 20.8639 42.2989 19.1489 37.2957 19.228C31.925 19.7231 28.1752 22.8062 26.2326 26.2466C23.6723 30.7819 24.1012 36.361 27.2639 39.7274C30.1713 42.8181 33.2626 45.7659 36.2849 48.8005L49.875 62.4447C51.0416 63.6187 52.8055 65.9182 55.7742 64.9433C57.7729 64.2874 59.6567 61.6969 58.2809 58.9737C57.6223 57.6695 46.4367 46.7689 44.9357 45.2631C43.371 43.691 41.9389 42.2566 40.3742 40.6845C39.5701 39.8754 38.8988 39.2042 38.0947 38.3951L36.0424 36.1517C35.2689 35.7612 34.3883 34.7812 33.8165 34.0793C31.6646 31.4327 35.565 27.2368 38.6052 28.0204C39.6875 28.2986 40.3869 29.248 40.997 29.8248C42.1559 30.9299 46.4239 34.8603 47.034 35.9093C47.9121 36.2921 55.7231 44.2295 57.2777 45.7123L62.337 50.6994C63.6975 52.0189 66.439 53.6242 69.2189 53.8743C77.7982 54.6502 84.8792 45.9471 83.197 38.2624C82.5461 35.284 80.9814 33.6123 79.4728 32.0988L54.3906 6.91863C48.3792 0.864772 41.5331 -2.10601 32.7444 1.68659C30.5951 2.61304 27.8995 4.20562 26.5389 5.53533L16.3871 15.489C15.481 16.3771 14.705 17.1352 13.8013 18.0208C13.3368 18.4751 13.0585 18.9166 12.6041 19.3811C9.51802 22.5331 3.69803 27.7728 1.25006 30.5088C-2.09643 34.2452 1.8729 39.3012 6.08218 37.5299C7.30745 37.0144 17.4286 26.7162 18.8811 25.2946C21.8957 22.3417 31.4553 12.1711 34.2913 10.5479C42.1942 6.02791 46.5005 11.2191 50.9369 15.6804C51.3837 16.1296 53.0914 17.643 53.242 18.1994Z" fill="white"/>
<path fill-rule="evenodd" clip-rule="evenodd" d="M143.223 21.4845C143.082 20.7418 143.093 20.2365 143.019 19.5091C142.914 18.4652 142.86 18.6413 141.781 18.6541C140.315 18.6694 138.853 18.6694 137.387 18.6694L137.474 39.8273L143.925 39.8196C143.927 37.686 143.613 27.2168 144.241 25.6523C145.275 23.0669 148.862 22.5437 149.957 25.4047C150.674 27.2806 150.37 37.4206 150.368 39.8069L156.818 39.8273C156.821 36.5936 156.818 33.3574 156.818 30.1238C156.818 27.107 156.622 23.5901 160.037 23.488C163.337 23.3859 163.269 27.0841 163.266 29.9426C163.263 33.2375 163.269 36.5324 163.266 39.8273L169.719 39.8247C169.711 35.0802 170.436 25.0244 168.456 21.5228C167.309 19.5014 165.311 17.9982 162.043 18.1666C158.334 18.358 157.405 20.142 155.652 21.6912C154.679 20.4764 154.83 20.0578 153.444 19.1722C150.756 17.4546 146.766 17.9727 144.407 20.1574C143.899 20.6244 143.805 21.0762 143.223 21.4845Z" fill="white"/>
<path fill-rule="evenodd" clip-rule="evenodd" d="M287.558 23.4625C293.789 21.2855 295.341 32.9899 290.292 34.8352C287.028 36.0296 284.748 33.6203 284.694 30.6776C284.631 27.204 284.485 24.537 287.558 23.4625ZM277.864 37.4537C278.078 38.2092 277.943 38.9825 277.904 39.8171L283.528 39.8145L283.781 36.9203C285.202 38.3725 286.119 40.1234 289.8 40.2867C296.937 40.6006 300.712 33.9087 299.883 26.9463C299.727 25.6242 299.025 23.9423 298.994 23.1409C298.213 22.4518 297.146 19.0267 292.646 18.3045C288.357 17.6205 286.734 19.3509 284.697 21.1272L284.694 9.07054L277.989 8.99142C278.264 10.8877 278.073 14.1775 278.073 16.2295C278.073 18.6056 278.073 20.9817 278.073 23.3579C278.075 25.5349 278.395 36.3997 277.864 37.4537Z" fill="white"/>
<path fill-rule="evenodd" clip-rule="evenodd" d="M252.325 18.695L246.185 18.6822C244.789 23.5952 244.046 29.0799 243.079 34.2201C242.311 31.0094 240.166 21.1885 239.263 18.6745H234.117C233.211 21.3059 230.375 33.8245 230.211 34.1231C229.994 33.6637 227.893 21.2855 227.194 18.6745L220.892 18.6694C220.215 18.8711 220.718 19.453 221.19 21.0558C221.453 21.9388 221.703 22.8423 221.976 23.7407C223.347 28.2249 225.678 35.7591 226.676 39.8222H232.965C233.336 37.8391 234.267 35.1465 234.852 33.1226C235.569 30.6419 235.87 28.4368 236.455 25.9228L238.038 32.9006C238.594 35.0674 239.51 37.7115 239.881 39.8197L246.129 39.8222C246.803 36.9637 250.834 24.2996 252.286 19.8281C252.511 19.1263 252.779 18.9144 252.325 18.695Z" fill="white"/>
<path fill-rule="evenodd" clip-rule="evenodd" d="M197.946 39.7354L204.573 39.8221C204.573 37.6017 204.195 26.9768 205.012 25.397C205.522 24.4067 206.569 23.5364 208.095 23.5262C211.569 23.5007 211.541 26.765 211.539 29.94C211.536 33.2349 211.536 36.5298 211.541 39.8247H218.165C218.176 35.2486 218.806 25.3817 217.037 21.9056C215.225 18.3427 210.857 17.2631 207.243 19.0292C206.02 19.6264 205.481 20.3564 204.619 21.1374L204.575 9.12662L197.949 9.07303L197.946 39.7354Z" fill="white"/>
<path fill-rule="evenodd" clip-rule="evenodd" d="M132.275 37.2343C131.667 35.879 131.981 21.5024 131.991 18.7741H125.594C125.589 20.5759 125.824 30.772 125.474 31.5275C125.408 35.2767 119.539 36.9433 118.72 31.6245C118.123 27.7426 119.067 22.4416 118.526 18.5469C117.186 18.9145 113.666 18.6516 112.04 18.6771C111.705 21.14 111.981 25.7825 111.981 28.4776C111.981 33.5157 112.045 40.5675 119.83 40.2893C121.273 40.2382 122.572 39.835 123.647 39.2403C124.949 38.5206 125.273 37.6732 126.266 36.8821L126.577 39.8248L132.326 39.8273L132.275 37.2343Z" fill="white"/>
<path fill-rule="evenodd" clip-rule="evenodd" d="M186.229 29.8787C186.985 36.7467 181.806 36.0423 180.769 34.9704C178.64 32.7652 181.175 29.307 186.229 29.8787ZM175.103 20.1139L176.292 24.2408C178.12 23.4599 179.386 22.7912 181.788 22.707C184.277 22.6202 186.056 23.2225 186.033 25.7211C179.804 25.7926 172.889 27.7017 173.591 34.5084C173.89 37.4205 175.937 39.4852 178.582 40.0901C182.273 40.9349 184.741 39.4342 186.533 37.7829C186.862 38.2704 186.962 39.2504 187.036 39.8272H193.004C192.271 34.368 193.798 24.7487 190.926 21.1603C187.003 16.255 177.206 18.4167 175.103 20.1139Z" fill="white"/>
<path fill-rule="evenodd" clip-rule="evenodd" d="M260.136 26.8468C260.437 24.5217 261.67 22.6892 264.013 22.5744C266.686 22.4417 267.852 24.3048 267.967 26.8468H260.136ZM272.636 36.6192L272.263 35.5652C272.192 35.213 272.146 34.8531 272.09 34.4932C269.049 35.1262 260.858 37.1067 260.184 31.3515L273.841 31.3413C274.762 28.0259 273.649 24.0827 272.151 21.8062C270.596 19.4479 267.656 18.1106 263.653 18.2177C255.018 19.3127 252.414 27.3292 254.502 33.6102C257.386 42.2928 269.739 40.6722 272.838 38.8958C272.843 38.0204 272.49 37.3288 272.636 36.6192Z" fill="white"/>
<path fill-rule="evenodd" clip-rule="evenodd" d="M101.449 22.5512L101.122 18.6999L95.5525 18.6642L95.6418 39.8246L102.268 39.8221C102.268 36.2133 102.143 32.3951 102.274 28.8348C102.411 25.0448 104.951 24.0086 108.706 24.4501L108.714 18.2584C106.587 18.0108 105.38 18.2686 103.902 19.3048C102.159 20.5299 102.039 21.9591 101.449 22.5512Z" fill="white"/>
<path fill-rule="evenodd" clip-rule="evenodd" d="M221.364 48.9386C225.346 47.9152 225.657 55.383 222.436 55.9725C220.47 56.3324 219.278 54.8751 219.072 53.1549C218.814 51.0187 219.554 49.4057 221.364 48.9386ZM224.355 48.5966C223.906 48.1117 223.391 47.7518 222.638 47.5732C217.236 46.2664 215.23 54.7832 219.643 56.9679C221.989 58.1292 223.408 56.853 224.524 55.8475C224.588 60.5078 222.377 60.9494 218.482 59.515L218.107 60.9264C228.641 64.3617 226.01 54.3876 226.359 47.6727C224.532 47.6625 224.805 47.5043 224.733 49.0254L224.355 48.5966Z" fill="white"/>
<path fill-rule="evenodd" clip-rule="evenodd" d="M166.881 57.1773C166.881 54.2806 165.882 49.0026 169.359 48.9413C172.44 48.8877 171.636 53.737 171.639 57.4198H173.413C173.415 54.0075 174.528 46.9608 169.551 47.4942C167.912 47.6703 167.634 48.4666 166.878 49.0766L166.868 43.107H165.101L165.099 57.4224L166.881 57.1773Z" fill="white"/>
<path fill-rule="evenodd" clip-rule="evenodd" d="M98.4599 50.5696C98.562 49.2246 98.9806 47.4789 99.2384 46.0879C99.4503 44.9548 99.6673 45.0186 101.013 45.0824C105.222 45.2789 104.433 51.3353 98.4599 50.5696ZM98.2685 52.004C100.081 52.0627 101.623 52.0321 103.065 51.1898C105.625 49.6968 106.416 45.3019 103.139 44.0768C101.868 43.6021 99.2461 43.5562 98.0132 44.1304L95.5014 57.4198C97.1581 57.4198 97.1325 57.6699 97.3852 56.1028C97.5461 55.0922 97.9085 52.6395 98.2685 52.004Z" fill="white"/>
<path fill-rule="evenodd" clip-rule="evenodd" d="M112.55 48.8646C112.614 49.0076 112.627 48.9922 112.647 49.3113L112.259 51.6006C111.443 55.7352 108.698 57.19 107.491 55.8092C106.353 54.5101 107.302 51.9196 108.106 50.7507C108.875 49.6303 110.383 48.4308 112.55 48.8646ZM113.255 57.4171C113.237 53.7317 114.215 51.1514 114.641 47.7391C112.28 47.392 110.661 47.1419 108.624 48.3414C107.31 49.1173 106.079 50.5976 105.561 52.4071C105 54.3825 105.263 56.7101 106.973 57.4248C109.633 58.5375 111.723 55.3473 111.723 55.3421C111.744 55.2656 111.8 55.2605 111.843 55.2273L111.688 57.4171H113.255Z" fill="white"/>
<path fill-rule="evenodd" clip-rule="evenodd" d="M244.873 48.9056C249.075 47.8388 249.66 55.1202 246.372 56.1667C242.257 57.481 241.096 49.8652 244.873 48.9056ZM250.196 53.7038C251.646 46.7132 242.203 45.1845 240.909 51.2409C239.36 58.4841 248.896 59.972 250.196 53.7038Z" fill="white"/>
<path fill-rule="evenodd" clip-rule="evenodd" d="M177.492 53.5225C176.54 48.3517 182.347 46.9837 183.217 51.5394C184.19 56.6336 178.349 58.1726 177.492 53.5225ZM175.631 53.3387C176.264 59.6427 185.91 58.9561 185.081 51.6925C184.371 45.4625 174.909 46.1261 175.631 53.3387Z" fill="white"/>
<path fill-rule="evenodd" clip-rule="evenodd" d="M283.339 48.8519C287.464 47.9791 287.949 55.3524 284.605 56.2049C280.381 57.287 279.548 49.6533 283.339 48.8519ZM281.744 47.8642C281.611 48.0352 280.832 48.5355 280.534 48.8366C277.519 51.8712 279.354 58.6065 284.827 57.5346C289.562 56.6056 290.448 48.806 284.666 47.4891C283.388 47.4457 282.849 47.5988 281.744 47.8642Z" fill="white"/>
<path fill-rule="evenodd" clip-rule="evenodd" d="M208.524 57.4197C208.524 54.3825 207.646 49.1301 210.847 48.931C214.102 48.7268 213.28 53.5837 213.28 57.3814L215.056 57.4197C215.059 53.4663 216.098 47.0653 211.207 47.4839C209.415 47.6396 209.142 48.5278 208.33 49.1479L208.243 47.6779L206.722 47.66L206.747 57.4197H208.524Z" fill="white"/>
<path fill-rule="evenodd" clip-rule="evenodd" d="M298.808 49.143C297.478 48.1987 297.95 47.4713 295.267 47.4713C293.33 47.8847 293.652 48.2216 292.488 49.0996L292.378 47.6601H290.856L290.885 57.43L292.659 57.3509C292.661 54.5026 291.653 49.0409 295.091 48.926C298.231 48.824 297.417 53.5302 297.417 57.4198H299.193C299.193 55.937 299.191 54.4541 299.193 52.9739C299.196 49.9035 298.833 49.975 298.808 49.143Z" fill="white"/>
<path fill-rule="evenodd" clip-rule="evenodd" d="M265.565 47.6729L263.697 47.7086C263.691 51.4961 264.524 56.0288 261.274 56.1539C258.216 56.2713 259.028 51.3532 259.015 47.6907L257.157 47.6627C257.7 50.7687 255.684 58.0093 260.914 57.624C262.714 57.4938 263.168 56.501 263.88 55.9931L264.013 57.3892L265.542 57.4223C265.453 55.3857 265.223 49.3726 265.565 47.6729Z" fill="white"/>
<path fill-rule="evenodd" clip-rule="evenodd" d="M123.611 47.6728L122.164 47.7672L120.405 57.4044L122.059 57.4171C122.478 54.1835 123.024 49.7299 125.673 48.9361C129.285 47.854 127.088 54.0737 126.615 57.4044L128.269 57.4171C128.525 55.5157 129.793 50.8631 129.403 49.2322C128.908 47.1725 126.546 46.9837 124.724 48.1756L123.751 49.0408C123.43 49.3777 123.731 49.1046 123.427 49.3368L123.611 47.6728Z" fill="white"/>
<path fill-rule="evenodd" clip-rule="evenodd" d="M137.781 51.8305C138.01 50.2787 140.389 47.6499 142.02 49.0587C142.978 49.8857 142.166 51.1158 141.17 51.4629C140.183 51.8075 138.878 51.8458 137.781 51.8305ZM137.52 53.127C140.331 53.1321 143.955 52.9611 144.019 50.049C144.088 46.8715 140.259 46.9685 138.23 48.5279C135.218 50.8427 133.454 59.8419 142.745 56.9732L142.574 55.7889C141.727 55.7634 137.426 58.0247 137.52 53.127Z" fill="white"/>
<path fill-rule="evenodd" clip-rule="evenodd" d="M192.197 49.2628C192.54 48.8723 192.514 48.6222 192.688 48.076C189.025 45.9321 184.94 49.7018 187.986 52.2514C189.081 53.1702 191.432 53.2519 191.335 54.9772C191.217 57.0879 188.386 56.0721 187.082 55.6765L186.725 57.0062C192.524 59.2241 194.048 54.9568 192.499 53.0426C191.549 51.8661 189.239 51.5904 188.82 50.6716C188.21 49.3368 189.52 48.0811 192.197 49.2628Z" fill="white"/>
<path fill-rule="evenodd" clip-rule="evenodd" d="M238.808 47.9918C233.471 46.0292 231.664 50.6538 234.16 52.3127C235.355 53.1065 237.606 53.3541 237.463 54.9594C237.29 56.922 234.617 56.2176 233.244 55.6995L232.851 57.0752C234.533 57.5397 236.169 58.119 237.93 57.042C239.327 56.187 239.618 54.0891 238.535 52.8742C237.662 51.8942 235.173 51.6134 234.867 50.5007C234.597 49.5181 235.278 48.9183 236.09 48.8035C237.019 48.6733 237.749 49.0867 238.441 49.3062L238.808 47.9918Z" fill="white"/>
<path fill-rule="evenodd" clip-rule="evenodd" d="M194.242 48.9771L195.728 49.0766C195.988 52.5884 194.393 58.9715 199.73 57.4479C199.973 56.9655 199.909 57.0957 199.858 56.085C197.877 56.2841 197.492 55.8247 197.492 53.8875L197.555 49.0179L200.034 48.9822L200.031 47.6703L197.504 47.6601L197.441 45.3452L195.761 45.9246L195.738 47.655L194.247 47.7009L194.242 48.9771Z" fill="white"/>
<path fill-rule="evenodd" clip-rule="evenodd" d="M273.037 56.1231C270.788 56.1614 270.553 56.0465 270.548 53.7061C270.545 52.407 270.428 50.1994 270.627 49.0228L273.095 48.9309V47.6803L270.563 47.6599L270.515 45.3936L268.817 45.8759L268.799 47.6574L267.306 47.6625L267.303 49.0075L268.741 49.01C269.348 52.5934 267.079 58.8565 272.919 57.4375L273.037 56.1231Z" fill="white"/>
<path fill-rule="evenodd" clip-rule="evenodd" d="M151.338 47.8105C149.615 47.3945 148.006 47.2644 146.779 48.3057C145.602 49.301 145.51 50.9651 146.48 52.088C147.274 53.0068 149.288 53.3948 148.867 55.1175C148.364 57.1899 145.26 55.8985 144.895 55.8245L144.522 57.0036C148.951 59.0301 151.577 55.5871 150.378 53.3106C149.678 51.9783 147.761 51.6644 147.521 50.5057C147.09 48.418 149.592 48.7166 150.947 49.1351L151.338 47.8105Z" fill="white"/>
<path fill-rule="evenodd" clip-rule="evenodd" d="M158.86 47.7978C152.772 46.5115 152.872 50.7431 153.903 51.9783C154.743 52.9839 156.647 53.3131 156.42 54.9721C156.167 56.8224 153.923 56.2456 152.484 55.8067L152.045 56.9628C155.297 58.757 159.493 56.4064 157.89 53.2953C157.163 51.8814 155.205 51.7231 155.047 50.396C154.75 47.928 158.347 49.0586 158.495 49.0586L158.86 47.7978Z" fill="white"/>
<path fill-rule="evenodd" clip-rule="evenodd" d="M252.542 57.3992L254.321 57.4017L254.313 43.1144L253.601 43.1042L253.236 43.0966L252.544 43.1425L252.542 57.3992Z" fill="white"/>
<path fill-rule="evenodd" clip-rule="evenodd" d="M135.519 43.1172L133.867 43.107L131.174 57.4121L132.821 57.4147L135.519 43.1172Z" fill="white"/>
<path fill-rule="evenodd" clip-rule="evenodd" d="M276.929 57.4809L276.863 47.8539V47.66H275.094L275.091 47.8539V57.4094L276.929 57.4809Z" fill="white"/>
<path fill-rule="evenodd" clip-rule="evenodd" d="M202.028 57.4196H203.804L203.802 47.66H202.028V57.4196Z" fill="white"/>
<path fill-rule="evenodd" clip-rule="evenodd" d="M117.092 57.4198C117.51 57.2028 117.337 57.3534 117.528 56.8634L118.342 52.5604C118.651 50.9678 119.014 49.2731 119.248 47.6805L117.615 47.6678L115.767 57.4223H117.092V57.4198Z" fill="white"/>
<path fill-rule="evenodd" clip-rule="evenodd" d="M125.474 31.5301C125.822 30.7721 125.587 20.5786 125.594 18.7767H131.991C131.981 21.505 131.667 35.8791 132.275 37.2369L132.188 18.7078L125.525 18.5955L125.474 31.5301Z" fill="white"/>
<path fill-rule="evenodd" clip-rule="evenodd" d="M202.454 43.9797C202.005 44.1762 202.048 43.8827 201.859 44.5922C201.553 45.7534 202.702 46.3685 203.516 45.8377C204.527 45.1792 203.82 43.3824 202.454 43.9797Z" fill="white"/>
<path fill-rule="evenodd" clip-rule="evenodd" d="M274.887 45.2941C275.569 45.8045 275.211 46.4094 276.881 45.7509C277.052 45.1282 277.047 44.73 276.876 44.1098L275.528 43.8853C275.051 44.3115 274.913 44.5182 274.887 45.2941Z" fill="white"/>
<path fill-rule="evenodd" clip-rule="evenodd" d="M119.711 43.9848C117.582 43.4744 117.62 45.3809 118.365 45.8607C119.389 46.5192 120.367 45.3834 119.711 43.9848Z" fill="white"/>
</g>
<defs>
<clipPath id="clip0_1_47">
<rect width="300" height="65.1811" fill="white"/>
</clipPath>
</defs>
</svg>
